<svg xmlns="http://www.w3.org/2000/svg" xmlns:xlink="http://www.w3.org/1999/xlink" viewBox="0 0 1500 1500" width="1500" height="1500" preserveAspectRatio="xMidYMid meet" style="width: 100%; height: 100%; transform: translate3d(0px, 0px, 0px); content-visibility: visible;"><defs><clipPath id="__lottie_element_2784"><rect width="1500" height="1500" x="0" y="0"/></clipPath></defs><g clip-path="url(#__lottie_element_2784)"><g transform="matrix(2.75,0,0,2.75,411.0659484863281,675.9061889648438)" opacity="1" style="display: block;"><g opacity="1" transform="matrix(1,0,0,1,0,0)"><path fill="rgb(204,204,204)" fill-opacity="1" d=" M70.24700164794922,8.708000183105469 C65.73200225830078,4.348999977111816 61.400001525878906,-0.40700000524520874 57.21099853515625,-5.006999969482422 C53.12300109863281,-9.493000030517578 48.89899826049805,-14.128999710083008 44.474998474121094,-18.43400001525879 C24.364999771118164,-38.005001068115234 1.7380000352859497,-49.11000061035156 -26.729000091552734,-53.38199996948242 C-33.10900115966797,-54.3390007019043 -39.94599914550781,-55.224998474121094 -46.720001220703125,-55.224998474121094 C-52.01599884033203,-55.224998474121094 -56.60599899291992,-54.68899917602539 -60.75600051879883,-53.5880012512207 C-64.11699676513672,-52.69599914550781 -70.05400085449219,-50.5359992980957 -72.072998046875,-46.09299850463867 C-73.14199829101562,-43.744998931884766 -72.9749984741211,-41.12099838256836 -71.58300018310547,-38.29499816894531 C-69.87899780273438,-34.83599853515625 -65.44300079345703,-32.125 -61.88100051879883,-29.944000244140625 C-61.88100051879883,-29.944000244140625 -60.31999969482422,-28.979999542236328 -60.31999969482422,-28.979999542236328 C-39.15299987792969,-15.602999687194824 -16.79599952697754,-10.994999885559082 4.824999809265137,-6.5370001792907715 C5.116000175476074,-6.478000164031982 5.188000202178955,-6.2210001945495605 5.188000202178955,-6.0929999351501465 C5.184999942779541,-5.994999885559082 5.164000034332275,-5.8979997634887695 4.932000160217285,-5.859000205993652 C-0.052000001072883606,-5.0289998054504395 -5.297999858856201,-4.609000205993652 -10.656000137329102,-4.609000205993652 C-15.746999740600586,-4.609000205993652 -20.95199966430664,-4.988999843597412 -26.128999710083008,-5.738999843597412 C-26.128999710083008,-5.738999843597412 -26.357999801635742,-5.770999908447266 -26.357999801635742,-5.770999908447266 C-26.357999801635742,-5.770999908447266 -26.57699966430664,-5.690999984741211 -26.57699966430664,-5.690999984741211 C-28.860000610351562,-4.84499979019165 -31.531999588012695,-4.5879998207092285 -34.11800003051758,-4.339000225067139 C-37.66899871826172,-3.996000051498413 -41.3380012512207,-3.6410000324249268 -44.347999572753906,-1.7979999780654907 C-49.992000579833984,1.6579999923706055 -52.439998626708984,5.264999866485596 -51.624000549316406,8.920999526977539 C-50.28799819946289,14.918999671936035 -40.375999450683594,18.746999740600586 -34.099998474121094,19.445999145507812 C-31.18199920654297,19.770000457763672 -28.18000030517578,19.934999465942383 -25.18199920654297,19.934999465942383 C-7.73799991607666,19.934999465942383 8.913000106811523,14.383999824523926 25.014999389648438,9.017000198364258 C25.014999389648438,9.017000198364258 28.20400047302246,8.03600025177002 28.20400047302246,8.03600025177002 C24.520000457763672,11.22599983215332 20.018999099731445,14.446999549865723 15.093999862670898,17.416000366210938 C15.093999862670898,17.416000366210938 14.034000396728516,18.253999710083008 14.034000396728516,18.253999710083008 C10.114999771118164,21.347000122070312 6.065999984741211,24.54599952697754 2.3970000743865967,28.0939998626709 C-2.7899999618530273,33.10499954223633 -8.593000411987305,43.47800064086914 -6.004000186920166,49.91999816894531 C-4.5970001220703125,53.41899871826172 -1.0679999589920044,55.20199966430664 4.489999771118164,55.222999572753906 C4.489999771118164,55.222999572753906 4.605999946594238,55.224998474121094 4.609000205993652,55.224998474121094 C18.513999938964844,55.224998474121094 29.841999053955078,46.119998931884766 40.797000885009766,37.31800079345703 C43.07400131225586,35.48899841308594 45.321998596191406,33.68199920654297 47.75,31.790000915527344 C50.41600036621094,28.013999938964844 53.45000076293945,24.569000244140625 56.76900100708008,21.55299949645996 C56.76900100708008,21.55299949645996 57.29100036621094,21.075000762939453 57.29100036621094,21.075000762939453 C57.29100036621094,21.075000762939453 56.95899963378906,20.447999954223633 56.95899963378906,20.447999954223633 C55.74800109863281,18.173999786376953 54.64099884033203,15.758000373840332 53.569000244140625,13.42300033569336 C52.367000579833984,10.800000190734863 51.12200164794922,8.08899974822998 49.72700119018555,5.559999942779541 C45.965999603271484,-1.2489999532699585 40.922000885009766,-6.710999965667725 35.54899978637695,-11.270999908447266 C41.486000061035156,-7.335000038146973 47.01300048828125,-2.684999942779541 51.422000885009766,3.2090001106262207 C53.21799850463867,5.611000061035156 54.88600158691406,8.180999755859375 56.49800109863281,10.666000366210938 C57.84600067138672,12.739999771118164 59.191001892089844,14.8149995803833 60.79999923706055,17.052000045776367 C60.79999923706055,17.052000045776367 61.33100128173828,17.805999755859375 61.33100128173828,17.805999755859375 C61.33100128173828,17.805999755859375 62.08000183105469,17.266000747680664 62.08000183105469,17.266000747680664 C65.16400146484375,15.03499984741211 68.3499984741211,13.142999649047852 71.54100036621094,11.638999938964844 C71.54100036621094,11.638999938964844 72.76699829101562,11.0600004196167 72.76699829101562,11.0600004196167 C72.76699829101562,11.0600004196167 71.76899719238281,10.142000198364258 71.76899719238281,10.142000198364258 C71.26200103759766,9.673999786376953 70.75499725341797,9.194999694824219 70.24700164794922,8.708000183105469z"/></g></g><g transform="matrix(2.75,0,0,2.75,310.9467468261719,594.5309448242188)" opacity="1" style="display: block;"><g opacity="1" transform="matrix(1,0,0,1,0,0)"><path fill="rgb(178,171,171)" fill-opacity="1" d=" M34.93000030517578,20.805999755859375 C29.070999145507812,15.819999694824219 21.847000122070312,14.357999801635742 15.03499984741211,10.793000221252441 C8.687000274658203,7.4710001945495605 2.4730000495910645,4.821000099182129 -4.247000217437744,2.2980000972747803 C-14.692999839782715,-1.6239999532699585 -33.72100067138672,-6.86299991607666 -32.47100067138672,-21.229999542236328 C-32.41299819946289,-21.89699935913086 -33.30500030517578,-22.06399917602539 -33.57099914550781,-21.488000869750977 C-38.92300033569336,-9.934000015258789 -29.738000869750977,0.4790000021457672 -20.80500030517578,7.160999774932861 C-4.453000068664551,19.39299964904785 14.770000457763672,21.683000564575195 34.542999267578125,21.83799934387207 C35.124000549316406,21.843000411987305 35.37699890136719,21.18600082397461 34.93000030517578,20.805999755859375z"/></g></g><g transform="matrix(2.75,0,0,2.75,419.6623840332031,716.3118896484375)" opacity="1" style="display: block;"><g opacity="1" transform="matrix(1,0,0,1,0,0)"><path fill="rgb(178,171,171)" fill-opacity="1" d=" M34.47999954223633,-24.408000946044922 C23.135000228881836,-34.24700164794922 8.732000350952148,-37.446998596191406 -4.864999771118164,-42.95000076293945 C-5.068999767303467,-43.03300094604492 -5.210999965667725,-42.744998931884766 -5.041999816894531,-42.617000579833984 C5.488999843597412,-34.6609992980957 16.448999404907227,-28.8799991607666 23.507999420166016,-17.284000396728516 C24.45400047302246,-15.729999542236328 25.354000091552734,-14.170999526977539 26.229999542236328,-12.609000205993652 C13.552000045776367,-8.359000205993652 4.103000164031982,-6.125999927520752 -10.60200023651123,-7.828999996185303 C-14.718999862670898,-8.305999755859375 -18.655000686645508,-8.11299991607666 -22.854000091552734,-7.910999774932861 C-23.288999557495117,-7.889999866485596 -57.29499816894531,-5.559000015258789 -48.38999938964844,-16.493999481201172 C-47.895999908447266,-17.100000381469727 -48.66999816894531,-17.910999298095703 -49.32600021362305,-17.625 C-68.34200286865234,-9.331000328063965 -41.87099838256836,8.57699966430664 -31.177000045776367,9.5 C-18.37700080871582,10.604000091552734 -9.225000381469727,7.3429999351501465 2.5339999198913574,3.3420000076293945 C10.744000434875488,0.5479999780654907 21.718000411987305,-1.909000039100647 28.631999969482422,-8.104999542236328 C30.888999938964844,-3.6440000534057617 32.805999755859375,0.9229999780654907 34.26300048828125,5.7230000495910645 C34.194000244140625,5.84499979019165 34.10599899291992,5.939000129699707 34.040000915527344,6.065999984741211 C29.64699935913086,14.555999755859375 16.94099998474121,23.604999542236328 7.9670000076293945,26.336999893188477 C-8.137999534606934,31.240999221801758 3.7190001010894775,8.508999824523926 8.991000175476074,3.878000020980835 C9.305999755859375,3.6019999980926514 8.986000061035156,3.0490000247955322 8.59000015258789,3.240999937057495 C1.1619999408721924,6.85099983215332 -6.336999893188477,12.649999618530273 -9.875,20.292999267578125 C-14.3149995803833,29.88599967956543 -9.468999862670898,39.224998474121094 0.652999997138977,42.07099914550781 C16.20199966430664,46.444000244140625 34.638999938964844,34.03799819946289 45.23899841308594,20.898000717163086 C50.87799835205078,21.150999069213867 56.78799819946289,17.02199935913086 55.933998107910156,9.604999542236328 C54.35100173950195,-4.1570000648498535 44.58399963378906,-15.645000457763672 34.47999954223633,-24.408000946044922z"/></g></g><g transform="matrix(2.75,0,0,2.75,-1341.5283203125,-1322.3427734375)" opacity="1" style="display: block;"><g opacity="1" transform="matrix(1,0,0,1,881.593017578125,688.635009765625)"><path fill="rgb(204,204,204)" fill-opacity="1" d=" M31.308000564575195,-17.1560001373291 C36.472999572753906,-19.966999053955078 41.35100173950195,-22.621999740600586 46.125,-25.413000106811523 C47.27399826049805,-26.083999633789062 48.70199966430664,-26.844999313354492 50.27799987792969,-27.684999465942383 C57.3380012512207,-31.447999954223633 67.01000213623047,-36.60100173950195 69.2509994506836,-42.803001403808594 C70.58699798583984,-46.507999420166016 70.4739990234375,-49.51599884033203 68.90899658203125,-51.74300003051758 C66.93499755859375,-54.555999755859375 62.749000549316406,-55.98400115966797 56.470001220703125,-55.98400115966797 C47.388999938964844,-55.98400115966797 36.6870002746582,-53.01499938964844 33.23400115966797,-51.50199890136719 C-13.378000259399414,-31.082000732421875 -50.8129997253418,4.27400016784668 -69.4800033569336,45.5 C-69.4800033569336,45.5 -70.17400360107422,47.03799819946289 -70.17400360107422,47.03799819946289 C-70.17400360107422,47.03799819946289 -68.50599670410156,46.7760009765625 -68.50599670410156,46.7760009765625 C-64.91400146484375,46.2130012512207 -61.22600173950195,45.92900085449219 -57.54499816894531,45.92900085449219 C-57.54499816894531,45.92900085449219 -55.64500045776367,45.95100021362305 -55.64500045776367,45.95100021362305 C-55.64500045776367,45.95100021362305 -55.41699981689453,45.35599899291992 -55.41699981689453,45.35599899291992 C-51.106998443603516,34.1510009765625 -43.35200119018555,24.71500015258789 -35.85300064086914,15.58899974822998 C-34.29399871826172,13.692999839782715 -32.73899841308594,11.800999641418457 -31.292999267578125,9.92300033569336 C-32.83100128173828,12.595999717712402 -34.50199890136719,15.215999603271484 -36.13199996948242,17.768999099731445 C-39.68299865722656,23.336999893188477 -43.35499954223633,29.094999313354492 -45.71500015258789,35.49100112915039 C-46.49300003051758,37.590999603271484 -47.09199905395508,39.85300064086914 -47.67399978637695,42.04100036621094 C-47.9739990234375,43.17499923706055 -48.2760009765625,44.31100082397461 -48.60300064086914,45.43000030517578 C-48.60300064086914,45.43000030517578 -48.89799880981445,46.43899917602539 -48.89799880981445,46.43899917602539 C-48.89799880981445,46.43899917602539 -47.85499954223633,46.5880012512207 -47.85499954223633,46.5880012512207 C-38.696998596191406,47.895999908447266 -30.426000595092773,51.066001892089844 -23.940000534057617,55.75699996948242 C-23.940000534057617,55.75699996948242 -23.625,55.98400115966797 -23.625,55.98400115966797 C-23.625,55.98400115966797 -23.2450008392334,55.915000915527344 -23.2450008392334,55.915000915527344 C-17.989999771118164,54.97100067138672 -12.545999526977539,54.85100173950195 -8.390000343322754,54.85100173950195 C-6.339000225067139,54.85100173950195 -4.283999919891357,54.88399887084961 -2.2269999980926514,54.915000915527344 C-0.164000004529953,54.948001861572266 1.902999997138977,54.97999954223633 3.9630000591278076,54.97999954223633 C11.758999824523926,54.97999954223633 20.062000274658203,54.54999923706055 27.950000762939453,51.42399978637695 C31.900999069213867,49.85900115966797 34.551998138427734,47.237998962402344 35.222999572753906,44.229000091552734 C35.638999938964844,42.36800003051758 35.49399948120117,39.46900177001953 32.448001861572266,36.22999954223633 C30.820999145507812,34.500999450683594 28.822999954223633,33.30099868774414 26.091999053955078,32.525001525878906 C26.091999053955078,32.525001525878906 23.90999984741211,32.5099983215332 23.90999984741211,32.5099983215332 C9.663000106811523,32.5099983215332 -4.138999938964844,34.31800079345703 -18.049999237060547,36.53300094604492 C-0.3149999976158142,31.527999877929688 15.1850004196167,28.711000442504883 30.309999465942383,27.722000122070312 C38.198001861572266,27.204999923706055 57.28099822998047,25.02899932861328 64.06700134277344,16.003999710083008 C66.2699966430664,13.071999549865723 66.97000122070312,9.675000190734863 66.14199829101562,5.9079999923706055 C63.874000549316406,-4.433000087738037 43.74100112915039,-6.785999774932861 39.72700119018555,-7.1529998779296875 C38.064998626708984,-7.303999900817871 36.35499954223633,-7.38100004196167 34.64500045776367,-7.38100004196167 C32.91699981689453,-7.38100004196167 31.165000915527344,-7.302999973297119 29.437000274658203,-7.14900016784668 C29.437000274658203,-7.14900016784668 29.246999740600586,-7.131999969482422 29.246999740600586,-7.131999969482422 C29.246999740600586,-7.131999969482422 29.08099937438965,-7.041999816894531 29.08099937438965,-7.041999816894531 C26.451000213623047,-5.610000133514404 23.822999954223633,-4.158999919891357 21.198999404907227,-2.7070000171661377 C9.593999862670898,3.7009999752044678 -2.4019999504089355,10.32800006866455 -14.873000144958496,15.218999862670898 C-14.998000144958496,15.218999862670898 -15.140000343322754,15.100000381469727 -15.14900016784668,15.083999633789062 C-2.869999885559082,1.4490000009536743 14.505000114440918,-8.008999824523926 31.308000564575195,-17.1560001373291z"/></g><g opacity="1" transform="matrix(1,0,0,1,850.1530151367188,705.5770263671875)"><path fill="rgb(178,171,171)" fill-opacity="1" d=" M30.73200035095215,-33.577999114990234 C31.73699951171875,-34.50600051879883 30.49799919128418,-35.91999816894531 29.39299964904785,-35.18299865722656 C5.580999851226807,-19.285999298095703 -24.545000076293945,-4.821000099182129 -30.96299934387207,26.45400047302246 C-32.387001037597656,33.393001556396484 -22.599000930786133,38.19300079345703 -17.631000518798828,33.54399871826172 C-8.946000099182129,25.41699981689453 -5.5269999504089355,12.623000144958496 0.12800000607967377,2.309000015258789 C7.76800012588501,-11.625 19.14299964904785,-22.87700080871582 30.73200035095215,-33.577999114990234z"/></g><g opacity="1" transform="matrix(1,0,0,1,912.22998046875,662.6389770507812)"><path fill="rgb(178,171,171)" fill-opacity="1" d=" M-39.41699981689453,36.349998474121094 C-26.12700080871582,31.35300064086914 5.236000061035156,17.187999725341797 22.017000198364258,-0.6340000033378601 C23.56599998474121,-0.8149999976158142 25.214000701904297,-1.4859999418258667 26.520000457763672,-1.9390000104904175 C44.40599822998047,-8.140000343322754 44.67300033569336,-29.090999603271484 27.069000244140625,-35.91899871826172 C21.246000289916992,-38.176998138427734 14.812000274658203,-31.698999404907227 17.72800064086914,-25.922000885009766 C22.795000076293945,-15.881999969482422 5.573999881744385,-0.5849999785423279 -0.7680000066757202,5.258999824523926 C-12.873000144958496,16.413999557495117 -26.347000122070312,26.268999099731445 -39.917999267578125,35.553001403808594 C-40.382999420166016,35.87099838256836 -39.88999938964844,36.52799987792969 -39.41699981689453,36.349998474121094z"/></g><g opacity="1" transform="matrix(1,0,0,1,908.6329956054688,701.531005859375)"><path fill="rgb(178,171,171)" fill-opacity="1" d=" M37.47200012207031,-14.944000244140625 C36.715999603271484,-16.718000411987305 35.62200164794922,-18.514999389648438 34.13999938964844,-20.320999145507812 C30.593000411987305,-24.643999099731445 24.3700008392334,-21.968000411987305 23.42300033569336,-17.045000076293945 C18.075000762939453,10.741999626159668 -18.934999465942383,13.569000244140625 -40.73400115966797,21.760000228881836 C-41.130001068115234,21.909000396728516 -40.933998107910156,22.583999633789062 -40.516998291015625,22.481000900268555 C-28.358999252319336,19.47100067138672 -12.652000427246094,18.156999588012695 1.4290000200271606,14.22700023651123 C1.3250000476837158,15.444999694824219 2.0820000171661377,16.792999267578125 3.4590001106262207,16.85099983215332 C10.222000122070312,17.132999420166016 18.54599952697754,14.663999557495117 25.417999267578125,10.4350004196167 C34.499000549316406,6.640999794006348 41.612998962402344,0.675000011920929 40.9010009765625,-11.07800006866455 C40.78200149536133,-13.039999961853027 39.250999450683594,-14.423999786376953 37.47200012207031,-14.944000244140625z"/></g><g opacity="1" transform="matrix(1,0,0,1,882.85498046875,731.4619750976562)"><path fill="rgb(178,171,171)" fill-opacity="1" d=" M32.29199981689453,-9.890000343322754 C28.50200080871582,-16.62299919128418 16.23699951171875,-14.359000205993652 18.283000946044922,-5.677999973297119 C18.413000106811523,-5.124000072479248 18.549999237060547,-4.8420000076293945 18.676000595092773,-4.670000076293945 C18.56100082397461,-4.599999904632568 18.427000045776367,-4.500999927520752 18.253999710083008,-4.335000038146973 C16.868999481201172,-3.003999948501587 14.088000297546387,-2.4179999828338623 12.336000442504883,-1.7710000276565552 C6.2270002365112305,0.48500001430511475 -0.26600000262260437,1.9140000343322754 -6.593999862670898,3.427999973297119 C-15.939000129699707,5.664000034332275 -25.773000717163086,7.822000026702881 -35.39400100708008,8.423999786376953 C-35.87099838256836,8.454000473022461 -35.92100143432617,9.196999549865723 -35.486000061035156,9.338000297546387 C-22.180999755859375,13.633000373840332 -5.706999778747559,14.649999618530273 8.079999923706055,13.1899995803833 C12.090999603271484,12.765000343322754 18.250999450683594,11.37399959564209 23.604000091552734,8.901000022888184 C24.18199920654297,9.883999824523926 25.02199935913086,10.626999855041504 26.33300018310547,10.95199966430664 C28.826000213623047,11.569999694824219 30.8700008392334,11.041000366210938 32.534000396728516,9.045000076293945 C37.20500183105469,3.443000078201294 36.277000427246094,-2.065999984741211 33.28799819946289,-7.994999885559082 C33.007999420166016,-8.61400032043457 32.691001892089844,-9.241999626159668 32.29199981689453,-9.890000343322754z"/></g></g><g transform="matrix(2.75,0,0,2.75,720.9716796875,740.1572265625)" opacity="1" style="display: block;"><g opacity="1" transform="matrix(1,0,0,1,0,0)"><path fill="rgb(170,51,51)" fill-opacity="1" d=" M112.18499755859375,13.418999671936035 C102.9990005493164,-1.0529999732971191 86.69599914550781,-5.840000152587891 70.43099975585938,-5.059000015258789 C61.79600143432617,-5.065000057220459 53.097999572753906,-3.1519999504089355 46.11600112915039,0.0949999988079071 C42.930999755859375,1.3240000009536743 42.99300003051758,4.835999965667725 44.77899932861328,6.9079999923706055 C38.659000396728516,9.236000061035156 32.823001861572266,12.958000183105469 29.69499969482422,18.219999313354492 C28.312999725341797,16.7189998626709 26.805999755859375,15.324999809265137 25.03700065612793,14.17300033569336 C23.70800018310547,13.307999610900879 22.268999099731445,15.331999778747559 23.61199951171875,16.19099998474121 C25.48200035095215,17.386999130249023 27.101999282836914,18.868999481201172 28.570999145507812,20.507999420166016 C28.56599998474121,20.518999099731445 28.56100082397461,20.530000686645508 28.555999755859375,20.541000366210938 C28.05699920654297,20.95800018310547 27.55900001525879,21.405000686645508 27.059999465942383,21.90999984741211 C26.638999938964844,22.336999893188477 27.190000534057617,23.040000915527344 27.66900062561035,22.639999389648438 C27.749000549316406,22.572999954223633 27.825000762939453,22.524999618530273 27.90399932861328,22.459999084472656 C27.726999282836914,23.121999740600586 27.57900047302246,23.79800033569336 27.483999252319336,24.49799919128418 C10.524999618530273,-8.982000350952148 -50.869998931884766,-11.043000221252441 -64.45600128173828,26.094999313354492 C-64.7229995727539,26.825000762939453 -63.75699996948242,27.290000915527344 -63.29100036621094,26.711999893188477 C-60.0369987487793,22.684999465942383 -56.61399841308594,19.56800079345703 -53.064998626708984,17.187999725341797 C-63.25199890136719,32.11199951171875 -62.51100158691406,54.446998596191406 -51.89099884033203,69.15699768066406 C-37.10200119018555,89.64099884033203 -6.892000198364258,96.79199981689453 16.634000778198242,89.76799774169922 C23.573999404907227,87.69599914550781 29.97100067138672,84.53600311279297 35.665000915527344,80.52899932861328 C35.11399841308594,83.0510025024414 34.56700134277344,85.5719985961914 34.01900100708008,88.08300018310547 C14.692999839782715,107.12300109863281 -12.071999549865723,110.45700073242188 -37.38800048828125,98.00700378417969 C-37.67599868774414,97.86499786376953 -37.93000030517578,98.34200286865234 -37.652000427246094,98.50700378417969 C-14.51200008392334,112.24500274658203 12.083999633789062,111.89199829101562 32.29100036621094,96.11299896240234 C31.143999099731445,101.52999877929688 30.04199981689453,106.95999908447266 29.05699920654297,112.47000122070312 C27.795000076293945,119.53199768066406 25.78499984741211,126.39199829101562 27.08099937438965,133.1820068359375 C26.871999740600586,134.44000244140625 26.66699981689453,135.697998046875 26.499000549316406,136.9720001220703 C26.04599952697754,140.40899658203125 31.535999298095703,141.83299255371094 32.512001037597656,138.38299560546875 C33.5099983215332,135.3939971923828 34.71200180053711,132.44900512695312 36.04800033569336,129.5449981689453 C45.66600036621094,111.14800262451172 66.15299987792969,101.23899841308594 81.0530014038086,87.09100341796875 C85.7699966430664,82.61199951171875 90.04100036621094,77.52999877929688 93.75199890136719,72.05699920654297 C112.53500366210938,58.1349983215332 127.39099884033203,37.375999450683594 112.18499755859375,13.418999671936035z M36.07500076293945,18.665000915527344 C49.11800003051758,17.843000411987305 53.13399887084961,46.5989990234375 51.948001861572266,53.87200164794922 C51.39500045776367,57.26100158691406 50.4640007019043,60.608001708984375 49.35900115966797,63.92300033569336 C46.26300048828125,68.26499938964844 42.54999923706055,72.18000030517578 38.40399932861328,75.59300231933594 C39.55699920654297,69.78900146484375 40.30799865722656,63.99399948120117 40.314998626708984,57.77799987792969 C40.32899856567383,46.354000091552734 39.22800064086914,31.739999771118164 32.37699890136719,21.617000579833984 C33.435001373291016,20.472000122070312 34.69499969482422,19.5 36.07500076293945,18.665000915527344z M38.43899917602539,17.44700050354004 C43.43199920654297,15.25 49.5359992980957,14.739999771118164 54.875999450683594,16.006000518798828 C59.672000885009766,27.062000274658203 59.66999816894531,38.63399887084961 56.65599822998047,49.74700164794922 C56.51300048828125,50.16999816894531 56.347999572753906,50.58399963378906 56.194000244140625,51.00199890136719 C56.47800064086914,48.6870002746582 56.65800094604492,46.36199951171875 56.566001892089844,44.012001037597656 C56.16999816894531,33.89799880981445 48.26599884033203,19.06399917602539 38.43899917602539,17.44700050354004z M58.290000915527344,17.138999938964844 C58.56100082397461,17.253000259399414 58.82400131225586,17.375999450683594 59.0880012512207,17.500999450683594 C59.18199920654297,17.875 59.27399826049805,18.25200080871582 59.354000091552734,18.63800048828125 C59.01499938964844,18.131000518798828 58.67100143432617,17.625999450683594 58.290000915527344,17.138999938964844z M9.267000198364258,89.00299835205078 C-10.277999877929688,92.1719970703125 -32.88199996948242,86.57099914550781 -46.5260009765625,71.59400177001953 C-63.34199905395508,53.13399887084961 -59.41999816894531,30.40999984741211 -45.446998596191406,13.244999885559082 C-23.059999465942383,4.85099983215332 3.1700000762939453,20.344999313354492 25.551000595092773,29.476999282836914 C27.10099983215332,30.108999252319336 28.575000762939453,28.77899932861328 28.59000015258789,27.301000595092773 C28.915000915527344,27.261999130249023 29.219999313354492,27.118000030517578 29.356000900268555,26.695999145507812 C29.729999542236328,25.538000106811523 30.29199981689453,24.49799919128418 30.93400001525879,23.514999389648438 C40.61800003051758,37.827999114990234 39.58000183105469,62.48500061035156 36.391998291015625,77.2040023803711 C28.427000045776367,83.23600006103516 19.035999298095703,87.41899871826172 9.267000198364258,89.00299835205078z M36.15599822998047,85.33399963378906 C36.72100067138672,83.21199798583984 37.231998443603516,81.1259994506836 37.70500183105469,79.0469970703125 C41.1150016784668,76.44000244140625 44.24700164794922,73.51899719238281 47.03300094604492,70.30400085449219 C46.650001525878906,71.2750015258789 46.26499938964844,72.24600219726562 45.86899948120117,73.21099853515625 C44.06700134277344,76.00199890136719 42.1510009765625,78.70800018310547 40.13800048828125,81.28500366210938 C38.78799819946289,83.01399993896484 37.37699890136719,84.62699890136719 35.93199920654297,86.16999816894531 C36.00600051879883,85.89299774169922 36.084999084472656,85.60099792480469 36.15599822998047,85.33399963378906z M33.60499954223633,95.09400177001953 C35.58399963378906,93.45999908447266 37.49599838256836,91.6719970703125 39.334999084472656,89.7300033569336 C36.71900177001953,97.01399993896484 34.45899963378906,104.31500244140625 32.66699981689453,111.72799682617188 C31.40999984741211,115.30699920654297 30.273000717163086,118.93099975585938 29.31399917602539,122.6240005493164 C29.395000457763672,113.7030029296875 31.4950008392334,103.58000183105469 33.60499954223633,95.09400177001953z M45.810001373291016,82.79100036621094 C46.08000183105469,82.1050033569336 46.36199951171875,81.41400146484375 46.64099884033203,80.7239990234375 C47.20800018310547,79.91500091552734 47.77799987792969,79.06999969482422 48.34700012207031,78.20700073242188 C47.4900016784668,79.73100280761719 46.641998291015625,81.25800323486328 45.810001373291016,82.79100036621094z M55.444000244140625,66.01300048828125 C55.25699996948242,66.32499694824219 55.073001861572266,66.63899993896484 54.887001037597656,66.95099639892578 C62.08599853515625,52.784000396728516 66.9540023803711,35.76100158691406 61.67300033569336,22.97800064086914 C61.51499938964844,21.45599937438965 61.2869987487793,19.96299934387207 60.970001220703125,18.53499984741211 C63.85300064086914,20.354999542236328 66.06199645996094,22.91699981689453 66.94499969482422,26.31599998474121 C70.75399780273438,40.9630012512207 62.54499816894531,54.13399887084961 55.444000244140625,66.01300048828125z"/></g></g><g transform="matrix(2.75,0,0,2.75,-1341.5283203125,-1322.3427734375)" opacity="1" style="display: block;"><g opacity="1" transform="matrix(1,0,0,1,832.239013671875,803.10302734375)"><path fill="rgb(201,63,63)" fill-opacity="1" d=" M25.740999221801758,-39.83000183105469 C18.514999389648438,-49.29100036621094 5.369999885559082,-54.93899917602539 -9.425999641418457,-54.93899917602539 C-9.968999862670898,-54.93899917602539 -10.512999534606934,-54.93199920654297 -11.053000450134277,-54.91600036621094 C-11.053000450134277,-54.91600036621094 -11.347000122070312,-53.1510009765625 -11.347000122070312,-53.1510009765625 C-0.8199999928474426,-49.207000732421875 6.914000034332275,-40.39500045776367 9.876999855041504,-28.975000381469727 C15.880000114440918,-5.841000080108643 3.13700008392334,15.9399995803833 -8.609999656677246,30.13800048828125 C-8.609999656677246,30.13800048828125 -7.63700008392334,31.343000411987305 -7.63700008392334,31.343000411987305 C-8.753000259399414,31.937999725341797 -9.871000289916992,32.53200149536133 -11.02299976348877,33.08700180053711 C-11.02299976348877,33.08700180053711 -11.185999870300293,33.16400146484375 -11.185999870300293,33.16400146484375 C-11.185999870300293,33.16400146484375 -11.305000305175781,33.29600143432617 -11.305000305175781,33.29600143432617 C-14.29800033569336,36.60900115966797 -18.05299949645996,40.19900131225586 -22.027999877929688,44 C-25.23699951171875,47.06800079345703 -28.55900001525879,50.24300003051758 -31.780000686645508,53.555999755859375 C-31.780000686645508,53.555999755859375 -30.604999542236328,54.93899917602539 -30.604999542236328,54.93899917602539 C-28.111000061035156,53.20199966430664 -25.572999954223633,51.52399826049805 -23.06999969482422,49.86899948120117 C-23.06999969482422,49.86899948120117 -21.816999435424805,49.04100036621094 -21.816999435424805,49.04100036621094 C-2.38700008392334,36.17599868774414 11.36299991607666,23.625 20.222000122070312,10.67300033569336 C20.222000122070312,10.67300033569336 19.44499969482422,10.098999977111816 19.44499969482422,10.098999977111816 C21.577999114990234,7.5370001792907715 23.562999725341797,4.869999885559082 25.343000411987305,2.0789999961853027 C27.503999710083008,-2.1559998989105225 29.09600067138672,-6.198999881744385 30.208999633789062,-10.281000137329102 C33.32899856567383,-21.698999404907227 31.781999588012695,-31.91699981689453 25.740999221801758,-39.83000183105469z"/></g><g opacity="1" transform="matrix(1,0,0,1,712.458984375,790.72900390625)"><path fill="rgb(201,63,63)" fill-opacity="1" d=" M-11.621000289916992,26.357999801635742 C-11.621000289916992,26.357999801635742 -11.638999938964844,26.339000701904297 -11.638999938964844,26.339000701904297 C-11.638999938964844,26.339000701904297 -11.961999893188477,24.047000885009766 -11.961999893188477,24.047000885009766 C-13.814000129699707,10.835000038146973 -12.838000297546387,-1.878000020980835 -9.210000038146973,-11.75 C-3.127000093460083,-28.302000045776367 9.694000244140625,-39.20899963378906 24.25,-40.21699905395508 C24.25,-40.21699905395508 24.354000091552734,-42.02299880981445 24.354000091552734,-42.02299880981445 C22.215999603271484,-42.41600036621094 20.049999237060547,-42.61600112915039 17.91200065612793,-42.61600112915039 C9.531000137329102,-42.61600112915039 1.531000018119812,-39.67300033569336 -5.863999843597412,-33.86800003051758 C-17.868999481201172,-24.444000244140625 -24.790000915527344,-9.161999702453613 -24.33300018310547,7.2729997634887695 C-23.937000274658203,8.482000350952148 -23.43000030517578,9.664999961853027 -22.91699981689453,10.845000267028809 C-22.91699981689453,10.845000267028809 -24.104000091552734,11.140999794006348 -24.104000091552734,11.140999794006348 C-23.732999801635742,14.654999732971191 -23.041000366210938,18.023000717163086 -22.047000885009766,21.15399932861328 C-19.663000106811523,28.6560001373291 -15.394000053405762,35.87699890136719 -9.361000061035156,42.61600112915039 C-9.361000061035156,42.61600112915039 -7.817999839782715,41.71799850463867 -7.817999839782715,41.71799850463867 C-9.456999778747559,36.80500030517578 -10.720999717712402,31.732999801635742 -11.572999954223633,26.645000457763672 C-11.572999954223633,26.645000457763672 -11.621000289916992,26.357999801635742 -11.621000289916992,26.357999801635742z"/></g><g opacity="1" transform="matrix(1,0,0,1,771.1649780273438,818.7100219726562)"><path fill="rgb(201,63,63)" fill-opacity="1" d=" M41.297000885009766,23.020999908447266 C41.297000885009766,23.020999908447266 40.38800048828125,21.545000076293945 40.38800048828125,21.545000076293945 C41.63600158691406,21.1200008392334 42.880001068115234,20.68400001525879 44.10499954223633,20.211999893188477 C44.10499954223633,20.211999893188477 44.277000427246094,20.145999908447266 44.277000427246094,20.145999908447266 C44.277000427246094,20.145999908447266 44.4109992980957,20.01799964904785 44.4109992980957,20.01799964904785 C48.69499969482422,15.871999740600586 51.74700164794922,12.798999786376953 53.71799850463867,10.293999671936035 C69.87100219726562,-10.196000099182129 79.0770034790039,-40.858001708984375 61.11899948120117,-59.7599983215332 C55.832000732421875,-65.3219985961914 49.3120002746582,-68.61900329589844 41.45100021362305,-69.55000305175781 C24.698999404907227,-66.23500061035156 14.553999900817871,-55.749000549316406 14.319999694824219,-41.49800109863281 C14.251999855041504,-37.334999084472656 10.600000381469727,-35.15700149536133 7.0289998054504395,-35.15700149536133 C4.610000133514404,-35.15700149536133 1.5789999961853027,-36.231998443603516 0.32899999618530273,-39.25600051879883 C-4.644000053405762,-51.26100158691406 -13.449000358581543,-61.15999984741211 -24.062000274658203,-66.49299621582031 C-26.76099967956543,-67.02300262451172 -29.474000930786133,-67.29100036621094 -32.125,-67.29100036621094 C-37.07699966430664,-67.29100036621094 -41.62699890136719,-66.37999725341797 -45.65599822998047,-64.58100128173828 C-63.209999084472656,-56.74399948120117 -70.20800018310547,-36.084999084472656 -70.86399841308594,-20.77400016784668 C-71.13999938964844,-14.319999694824219 -70.61100006103516,-7.5229997634887695 -69.29299926757812,-0.5730000138282776 C-69.29299926757812,-0.5730000138282776 -69.29199981689453,-0.5699999928474426 -69.29199981689453,-0.5699999928474426 C-69.29199981689453,-0.5699999928474426 -69.38500213623047,-0.6499999761581421 -69.38500213623047,-0.6499999761581421 C-69.38500213623047,-0.6499999761581421 -68.79399871826172,2.0439999103546143 -68.79399871826172,2.0439999103546143 C-67.46700286865234,8.102999687194824 -65.552001953125,13.99899959564209 -63.10599899291992,19.566999435424805 C-63.10599899291992,19.566999435424805 -63.03200149536133,19.73699951171875 -63.03200149536133,19.73699951171875 C-63.03200149536133,19.73699951171875 -62.895999908447266,19.864999771118164 -62.895999908447266,19.864999771118164 C-51.24100112915039,30.80500030517578 -36.71799850463867,38.981998443603516 -22.841999053955078,46.41899871826172 C-21.551000595092773,47.11199951171875 -20.240999221801758,47.80099868774414 -18.920000076293945,48.49399948120117 C-9.12600040435791,53.641998291015625 1,58.96200180053711 6.660999774932861,67.61000061035156 C6.660999774932861,67.61000061035156 7.928999900817871,69.55000305175781 7.928999900817871,69.55000305175781 C7.928999900817871,69.55000305175781 8.324000358581543,67.26599884033203 8.324000358581543,67.26599884033203 C9.14900016784668,62.46099853515625 11.142999649047852,58.025001525878906 14.482999801635742,53.60900115966797 C20.863000869750977,42.70199966430664 32.67300033569336,31.326000213623047 41.297000885009766,23.020999908447266z M6.770999908447266,27.173999786376953 C0,27.173999786376953 -6.776000022888184,26.503999710083008 -13.369000434875488,25.184999465942383 C-19.516000747680664,23.952999114990234 -31.222999572753906,21.128000259399414 -43.44200134277344,15.767000198364258 C-29.277000427246094,21.89299964904785 -15.76200008392334,24.67799949645996 -10.352999687194824,25.618000030517578 C-4.715000152587891,26.597999572753906 1.090999960899353,27.0939998626709 6.915999889373779,27.0939998626709 C15.965999603271484,27.0939998626709 25.11199951171875,25.85700035095215 33.85900115966797,23.51799964904785 C25.118999481201172,25.93199920654297 16.041000366210938,27.173999786376953 6.770999908447266,27.173999786376953z M-44.63600158691406,15.244999885559082 C-45.09199905395508,15.038999557495117 -45.547000885009766,14.824000358581543 -46.00400161743164,14.611000061035156 C-45.54800033569336,14.821000099182129 -45.090999603271484,15.041999816894531 -44.63600158691406,15.244999885559082z"/></g></g><g transform="matrix(2.75,0,0,2.75,655.9425048828125,895.1114501953125)" opacity="1" style="display: block;"><g opacity="1" transform="matrix(1,0,0,1,0,0)"><path fill="rgb(216,93,93)" fill-opacity="1" d=" M8.619999885559082,1.8370000123977661 C-1.215999960899353,-1.4950000047683716 -10.85200023651123,-21.305999755859375 -1.8420000076293945,-31.02400016784668 C-0.8299999833106995,-32.11600112915039 -1.7649999856948853,-33.77299880981445 -3.244999885559082,-33.25600051879883 C-25.893999099731445,-25.34600067138672 -20.757999420166016,12.472000122070312 -9.293999671936035,27.089000701904297 C7.136000156402588,48.03799819946289 34.03099822998047,10.444999694824219 8.619999885559082,1.8370000123977661z"/></g></g><g transform="matrix(2.75,0,0,2.75,723.7711791992188,993.690673828125)" opacity="1" style="display: block;"><g opacity="1" transform="matrix(1,0,0,1,0,0)"><path fill="rgb(216,93,93)" fill-opacity="1" d=" M0.8149999976158142,-7.939000129699707 C-1.3899999856948853,-7.939000129699707 -3.3570001125335693,-7.593999862670898 -5.114999771118164,-6.126999855041504 C-6.589000225067139,-4.896999835968018 -7.822999954223633,-2.7639999389648438 -7.939000129699707,-0.8149999976158142 C-8.173999786376953,3.134999990463257 -5.270999908447266,7.939000129699707 -0.8149999976158142,7.939000129699707 C1.3899999856948853,7.939000129699707 3.3570001125335693,7.593999862670898 5.114999771118164,6.126999855041504 C6.589000225067139,4.896999835968018 7.822999954223633,2.7639999389648438 7.939000129699707,0.8149999976158142 C8.173999786376953,-3.134999990463257 5.270999908447266,-7.939000129699707 0.8149999976158142,-7.939000129699707z"/></g></g></g></svg>